<svg width="512" height="512" viewBox="0 0 512 512" fill="none" xmlns="http://www.w3.org/2000/svg">
<path fill-rule="evenodd" clip-rule="evenodd" d="M208.257 281.901C213.39 277.492 216.742 271.7 218.319 264.524H269.025C266.696 285.028 258.279 301.636 243.772 314.349C229.265 327.06 211.403 333.417 190.192 333.417C174.727 333.417 160.8 330.086 148.415 323.422C136.031 316.757 126.363 307.497 119.418 295.638C112.472 283.781 109 270.469 109 255.708C109 240.946 112.472 227.636 119.418 215.777C126.363 203.92 136.031 194.659 148.415 187.995C160.8 181.332 174.727 178 190.192 178C211.062 178 228.684 184.135 243.055 196.402C257.424 208.671 265.909 224.747 268.509 244.636H218.522C216.4 238.075 212.773 232.796 207.641 228.797C202.511 224.798 196.763 222.799 190.395 222.799C181.637 222.799 174.572 225.825 169.201 231.873C163.827 237.922 161.142 245.867 161.142 255.708C161.142 265.482 163.846 273.392 169.252 279.44C174.658 285.489 181.705 288.513 190.395 288.513C197.171 288.513 203.125 286.309 208.257 281.901ZM388.223 241.494C398.072 250.756 403 262.73 403 277.417C403 294.203 397.331 307.732 385.996 318.007C374.658 328.28 359.715 333.417 341.17 333.417C322.844 333.417 307.938 328.261 296.457 317.952C284.975 307.64 279.235 294.275 279.235 277.85C279.235 268.88 280.812 259.854 283.961 250.773C287.113 241.695 291.983 231.764 298.577 220.982L321.888 182.977L371.133 182.966L343.561 227.82C346.313 227.675 348.486 227.603 350.083 227.603C365.656 227.603 378.368 232.233 388.223 241.494ZM354.973 291.199C358.519 287.655 360.295 283.06 360.295 277.417C360.295 271.773 358.519 267.143 354.973 263.525C351.422 259.907 346.822 258.098 341.17 258.098C335.521 258.098 330.919 259.907 327.373 263.525C323.821 267.143 322.046 271.773 322.046 277.417C322.046 283.06 323.821 287.655 327.373 291.199C330.919 294.745 335.521 296.517 341.17 296.517C346.822 296.517 351.422 294.745 354.973 291.199Z" fill="#242424"/>
</svg>
